<?xml version="1.0" encoding="UTF-8" standalone="no"?>
<!DOCTYPE svg PUBLIC "-//W3C//DTD SVG 1.1//EN"
 "http://www.w3.org/Graphics/SVG/1.1/DTD/svg11.dtd">
<!-- Generated by graphviz version 12.2.1 (0)
 -->
<!-- Title: diff_dependencies Pages: 1 -->
<svg width="339pt" height="98pt"
 viewBox="0.00 0.00 338.50 98.00" xmlns="http://www.w3.org/2000/svg" xmlns:xlink="http://www.w3.org/1999/xlink">
<g id="graph0" class="graph" transform="scale(1 1) rotate(0) translate(4 94)">
<title>diff_dependencies</title>
<polygon fill="white" stroke="none" points="-4,4 -4,-94 334.5,-94 334.5,4 -4,4"/>
<!-- environment.etc.hostname.text -->
<g id="node1" class="node">
<title>environment.etc.hostname.text</title>
<polygon fill="#ffffaa" stroke="black" points="170.5,-90 0,-90 0,-54 170.5,-54 170.5,-90"/>
<text text-anchor="middle" x="85.25" y="-68.88" font-family="Times,serif" font-size="10.00">environment.etc.hostname.text</text>
</g>
<!-- networking.hostName -->
<g id="node2" class="node">
<title>networking.hostName</title>
<polygon fill="#ff9999" stroke="black" points="330.5,-63 206.5,-63 206.5,-27 330.5,-27 330.5,-63"/>
<text text-anchor="middle" x="268.5" y="-41.88" font-family="Times,serif" font-size="10.00">networking.hostName</text>
</g>
<!-- environment.etc.hostname.text&#45;&gt;networking.hostName -->
<g id="edge1" class="edge">
<title>environment.etc.hostname.text&#45;&gt;networking.hostName</title>
<path fill="none" stroke="#666666" d="M170.77,-59.41C178.77,-58.22 186.83,-57.02 194.71,-55.84"/>
<polygon fill="#666666" stroke="#666666" points="195.21,-59.31 204.59,-54.37 194.18,-52.38 195.21,-59.31"/>
</g>
<!-- networking.hosts.127.0.0.2 -->
<g id="node3" class="node">
<title>networking.hosts.127.0.0.2</title>
<polygon fill="#ffffaa" stroke="black" points="159.25,-36 11.25,-36 11.25,0 159.25,0 159.25,-36"/>
<text text-anchor="middle" x="85.25" y="-14.88" font-family="Times,serif" font-size="10.00">networking.hosts.127.0.0.2</text>
</g>
<!-- networking.hosts.127.0.0.2&#45;&gt;networking.hostName -->
<g id="edge2" class="edge">
<title>networking.hosts.127.0.0.2&#45;&gt;networking.hostName</title>
<path fill="none" stroke="#666666" d="M159.71,-28.94C171.26,-30.66 183.21,-32.44 194.74,-34.16"/>
<polygon fill="#666666" stroke="#666666" points="194.22,-37.62 204.62,-35.63 195.25,-30.7 194.22,-37.62"/>
</g>
</g>
</svg>
